<svg width="38" height="33" viewBox="0 0 38 33" fill="none" xmlns="http://www.w3.org/2000/svg">
<path d="M20.0495 30.8489L34.1131 16.7854C37.5682 13.3129 38.0717 7.6354 34.8076 4.00665C33.989 3.09219 32.9925 2.35424 31.8791 1.83788C30.7656 1.32153 29.5586 1.03762 28.3317 1.00349C27.1049 0.969366 25.8839 1.18575 24.7435 1.63941C23.6031 2.09307 22.5671 2.7745 21.699 3.64204L19.0599 6.29849L16.7854 4.00665C13.3129 0.551529 7.6354 0.0480192 4.00665 3.31215C3.09219 4.13077 2.35424 5.12723 1.83788 6.24067C1.32153 7.35411 1.03762 8.56114 1.00349 9.788C0.969366 11.0149 1.18575 12.2358 1.63941 13.3762C2.09307 14.5167 2.7745 15.5526 3.64204 16.4208L18.0702 30.8489C18.3336 31.1098 18.6892 31.2561 19.0599 31.2561C19.4305 31.2561 19.7862 31.1098 20.0495 30.8489Z" stroke="url(#paint0_linear_1528_230)" stroke-width="2" stroke-linecap="round" stroke-linejoin="round"/>
<defs>
<linearGradient id="paint0_linear_1528_230" x1="1" y1="16.128" x2="37" y2="16.128" gradientUnits="userSpaceOnUse">
<stop stop-color="#B13FFF"/>
<stop offset="0.333333" stop-color="#B13FFF" stop-opacity="0.82"/>
<stop offset="0.666667" stop-color="#B13FFF" stop-opacity="0.67"/>
<stop offset="1" stop-color="#B13FFF"/>
</linearGradient>
</defs>
</svg>
