<svg width="32" height="28" viewBox="0 0 32 28" fill="none" xmlns="http://www.w3.org/2000/svg">
<path d="M16.8746 25.8741L28.5942 14.1545C31.4735 11.2608 31.8931 6.5295 29.173 3.50554C28.4908 2.74349 27.6604 2.12853 26.7325 1.69824C25.8047 1.26794 24.7988 1.03135 23.7764 1.00291C22.754 0.974472 21.7366 1.15479 20.7862 1.53284C19.8359 1.9109 18.9726 2.47875 18.2491 3.2017L16.0499 5.41541L14.1545 3.50554C11.2608 0.626275 6.5295 0.206683 3.50554 2.92679C2.74349 3.60897 2.12853 4.43936 1.69824 5.36723C1.26794 6.29509 1.03135 7.30095 1.00291 8.32334C0.974472 9.34573 1.15479 10.3632 1.53284 11.3135C1.9109 12.2639 2.47875 13.1272 3.2017 13.8506L15.2252 25.8741C15.4446 26.0915 15.741 26.2134 16.0499 26.2134C16.3588 26.2134 16.6551 26.0915 16.8746 25.8741Z" stroke="url(#paint0_linear_1506_180)" stroke-width="2" stroke-linecap="round" stroke-linejoin="round"/>
<defs>
<linearGradient id="paint0_linear_1506_180" x1="1" y1="13.6067" x2="31" y2="13.6067" gradientUnits="userSpaceOnUse">
<stop stop-color="#CB85FD"/>
<stop offset="0.333333" stop-color="#CB85FD" stop-opacity="0.82"/>
<stop offset="0.666667" stop-color="#CB85FD" stop-opacity="0.67"/>
<stop offset="1" stop-color="#CB85FD"/>
</linearGradient>
</defs>
</svg>
