<svg width="32" height="36" viewBox="0 0 32 36" fill="none" xmlns="http://www.w3.org/2000/svg">
<rect y="4" width="32" height="32" rx="8" fill="url(#paint0_linear_1507_203)"/>
<path d="M17.1431 29.4603L25.3697 21.2338C27.3908 19.2025 27.6853 15.8814 25.7759 13.7588C25.2971 13.2238 24.7142 12.7922 24.0629 12.4901C23.4116 12.1881 22.7055 12.022 21.9879 12.002C21.2702 11.9821 20.556 12.1087 19.8889 12.374C19.2218 12.6394 18.6158 13.038 18.108 13.5455L16.5642 15.0994L15.2338 13.7588C13.2025 11.7377 9.88141 11.4431 7.75876 13.3525C7.22384 13.8314 6.79217 14.4143 6.49012 15.0656C6.18808 15.7169 6.022 16.4229 6.00204 17.1406C5.98208 17.8583 6.10865 18.5725 6.37403 19.2396C6.6394 19.9066 7.038 20.5126 7.54548 21.0205L15.9853 29.4603C16.1394 29.6129 16.3474 29.6985 16.5642 29.6985C16.781 29.6985 16.9891 29.6129 17.1431 29.4603Z" stroke="#EFF2F8" stroke-linecap="round" stroke-linejoin="round"/>
<defs>
<linearGradient id="paint0_linear_1507_203" x1="0" y1="20" x2="32" y2="20" gradientUnits="userSpaceOnUse">
<stop stop-color="#363296"/>
<stop offset="1" stop-color="#7B78E5"/>
</linearGradient>
</defs>
</svg>
