<svg width="30" height="31" viewBox="0 0 30 31" fill="none" xmlns="http://www.w3.org/2000/svg">
<path d="M18.8182 28.5541V20.9178C18.8182 20.5802 18.6841 20.2565 18.4454 20.0178C18.2067 19.7791 17.883 19.6451 17.5455 19.6451H12.4545C12.117 19.6451 11.7933 19.7791 11.5546 20.0178C11.3159 20.2565 11.1818 20.5802 11.1818 20.9178V28.5541C11.1818 28.8917 11.0477 29.2154 10.809 29.4541C10.5704 29.6928 10.2466 29.8269 9.90909 29.8269H2.27273C1.93518 29.8269 1.61146 29.6928 1.37277 29.4541C1.13409 29.2154 1 28.8917 1 28.5541V13.8382C1.00285 13.6621 1.04091 13.4883 1.11195 13.3271C1.18299 13.1659 1.28556 13.0206 1.41364 12.8996L14.1409 1.33369C14.3755 1.11904 14.682 1 15 1C15.318 1 15.6245 1.11904 15.8591 1.33369L28.5864 12.8996C28.7144 13.0206 28.817 13.1659 28.888 13.3271C28.9591 13.4883 28.9971 13.6621 29 13.8382V28.5541C29 28.8917 28.8659 29.2154 28.6272 29.4541C28.3885 29.6928 28.0648 29.8269 27.7273 29.8269H20.0909C19.7534 29.8269 19.4296 29.6928 19.191 29.4541C18.9523 29.2154 18.8182 28.8917 18.8182 28.5541Z" stroke="url(#paint0_linear_1531_5059)" stroke-width="2" stroke-linecap="round" stroke-linejoin="round"/>
<defs>
<linearGradient id="paint0_linear_1531_5059" x1="1" y1="15.4134" x2="29" y2="15.4134" gradientUnits="userSpaceOnUse">
<stop stop-color="#B13FFF"/>
<stop offset="0.333333" stop-color="#B13FFF" stop-opacity="0.82"/>
<stop offset="0.666667" stop-color="#B13FFF" stop-opacity="0.67"/>
<stop offset="1" stop-color="#B13FFF"/>
</linearGradient>
</defs>
</svg>
