<svg width="210" height="83" viewBox="0 0 210 83" fill="none" xmlns="http://www.w3.org/2000/svg">
<path d="M48.3741 59.8727L47.9336 66.2947" stroke="#C98CF1" stroke-width="4" stroke-linecap="round" stroke-linejoin="round"/>
<path d="M37.485 58.2097L35.5028 66.5898" stroke="#C98CF1" stroke-width="4" stroke-linecap="round" stroke-linejoin="round"/>
<path d="M27.0048 54.8181L24.5216 60.7569" stroke="#C98CF1" stroke-width="4" stroke-linecap="round" stroke-linejoin="round"/>
<path d="M57.9486 28.9814C67.2335 33.3346 72.948 39.2214 71.771 44.1971C70.1295 51.1369 55.6776 53.6639 39.4672 49.8295C23.2569 45.9952 11.4686 37.2614 13.1101 30.3216C14.287 25.3459 22.0918 22.6292 32.3892 22.9357" stroke="#C98CF1" stroke-width="4" stroke-linecap="round" stroke-linejoin="round"/>
<path d="M28.5248 30.6218C28.2969 31.5667 28.3995 32.5611 28.8157 33.4394C29.2319 34.3178 29.9364 35.027 30.812 35.449C34.3611 37.173 38.0966 38.4834 41.945 39.3544C45.7757 40.2997 49.7024 40.8017 53.6478 40.8506C54.6197 40.8655 55.5673 40.5471 56.3329 39.9482C57.0984 39.3494 57.6357 38.5064 57.8553 37.5595L58.0968 36.5382C58.5562 34.5969 58.6255 32.5836 58.3008 30.6153C57.9761 28.6469 57.2638 26.7626 56.2052 25.0717C55.1466 23.3807 53.7628 21.9168 52.1341 20.7648C50.5054 19.6128 48.6641 18.7956 46.7172 18.3607C38.6265 16.5576 30.6185 21.7703 28.7168 29.81L28.5248 30.6218Z" stroke="#C98CF1" stroke-width="4" stroke-linecap="round" stroke-linejoin="round"/>
<path d="M95.3255 44.196H89.8655L88.8335 48H85.4375L90.6335 31.404H94.6655L99.8495 48H96.3575L95.3255 44.196ZM90.4535 41.736H94.7135L92.5895 33.864L90.4535 41.736ZM112.188 31.404V33.864H108.672V45.54H112.188V48H101.868V45.54H105.384V33.864H101.868V31.404H112.188ZM141.977 43.236C141.977 44.244 141.717 45.132 141.197 45.9C140.685 46.668 139.945 47.272 138.977 47.712C138.009 48.144 136.837 48.36 135.461 48.36C134.021 48.36 132.785 48.148 131.753 47.724C130.721 47.292 129.857 46.74 129.161 46.068L130.889 44.136C131.489 44.672 132.161 45.092 132.905 45.396C133.649 45.7 134.485 45.852 135.413 45.852C136.005 45.852 136.537 45.76 137.009 45.576C137.489 45.392 137.865 45.124 138.137 44.772C138.417 44.412 138.557 43.972 138.557 43.452C138.557 42.996 138.461 42.612 138.269 42.3C138.077 41.988 137.745 41.708 137.273 41.46C136.809 41.212 136.161 40.964 135.329 40.716C134.105 40.34 133.097 39.928 132.305 39.48C131.513 39.024 130.925 38.488 130.541 37.872C130.157 37.248 129.965 36.512 129.965 35.664C129.965 34.712 130.229 33.892 130.757 33.204C131.285 32.508 131.997 31.976 132.893 31.608C133.797 31.232 134.805 31.044 135.917 31.044C137.149 31.044 138.233 31.224 139.169 31.584C140.105 31.936 140.929 32.44 141.641 33.096L139.997 34.956C139.429 34.468 138.813 34.108 138.149 33.876C137.493 33.644 136.825 33.528 136.145 33.528C135.609 33.528 135.129 33.6 134.705 33.744C134.289 33.888 133.961 34.1 133.721 34.38C133.481 34.66 133.361 35.016 133.361 35.448C133.361 35.84 133.469 36.176 133.685 36.456C133.909 36.728 134.289 36.984 134.825 37.224C135.361 37.456 136.097 37.72 137.033 38.016C138.017 38.312 138.877 38.668 139.613 39.084C140.357 39.5 140.937 40.04 141.353 40.704C141.769 41.36 141.977 42.204 141.977 43.236ZM151.496 34.932C152.616 34.932 153.512 35.208 154.184 35.76C154.864 36.304 155.356 37.076 155.66 38.076C155.972 39.076 156.128 40.256 156.128 41.616C156.128 42.92 155.94 44.08 155.564 45.096C155.188 46.112 154.636 46.912 153.908 47.496C153.188 48.072 152.3 48.36 151.244 48.36C149.948 48.36 148.9 47.9 148.1 46.98V52.896L144.932 53.232V35.292H147.716L147.884 36.84C148.388 36.184 148.952 35.704 149.576 35.4C150.2 35.088 150.84 34.932 151.496 34.932ZM150.572 37.308C150.036 37.308 149.564 37.468 149.156 37.788C148.756 38.108 148.404 38.504 148.1 38.976V44.664C148.388 45.096 148.716 45.42 149.084 45.636C149.452 45.852 149.868 45.96 150.332 45.96C151.14 45.96 151.756 45.624 152.18 44.952C152.612 44.272 152.828 43.172 152.828 41.652C152.828 40.58 152.74 39.728 152.564 39.096C152.396 38.456 152.144 38 151.808 37.728C151.472 37.448 151.06 37.308 150.572 37.308ZM169.463 44.652C169.463 45.14 169.535 45.496 169.679 45.72C169.823 45.936 170.055 46.1 170.375 46.212L169.691 48.336C169.011 48.264 168.431 48.096 167.951 47.832C167.479 47.56 167.115 47.156 166.859 46.62C166.379 47.204 165.771 47.64 165.035 47.928C164.307 48.216 163.543 48.36 162.743 48.36C161.447 48.36 160.419 47.992 159.659 47.256C158.899 46.52 158.519 45.564 158.519 44.388C158.519 43.036 159.047 41.996 160.103 41.268C161.167 40.532 162.671 40.164 164.615 40.164H166.391V39.48C166.391 38.728 166.159 38.184 165.695 37.848C165.231 37.504 164.563 37.332 163.691 37.332C163.283 37.332 162.771 37.388 162.155 37.5C161.547 37.604 160.919 37.768 160.271 37.992L159.515 35.82C160.323 35.516 161.135 35.292 161.951 35.148C162.775 35.004 163.523 34.932 164.195 34.932C165.979 34.932 167.303 35.312 168.167 36.072C169.031 36.824 169.463 37.892 169.463 39.276V44.652ZM163.775 46.068C164.255 46.068 164.739 45.932 165.227 45.66C165.723 45.388 166.111 45.008 166.391 44.52V42.048H165.143C163.967 42.048 163.115 42.236 162.587 42.612C162.067 42.988 161.807 43.52 161.807 44.208C161.807 44.8 161.975 45.26 162.311 45.588C162.647 45.908 163.135 46.068 163.775 46.068ZM180.109 45.816C180.669 45.816 181.193 45.712 181.681 45.504C182.177 45.296 182.653 45.032 183.109 44.712L184.549 46.74C183.989 47.212 183.313 47.6 182.521 47.904C181.729 48.208 180.881 48.36 179.977 48.36C178.649 48.36 177.509 48.084 176.557 47.532C175.613 46.972 174.885 46.196 174.373 45.204C173.869 44.204 173.617 43.044 173.617 41.724C173.617 40.42 173.873 39.256 174.385 38.232C174.905 37.2 175.641 36.392 176.593 35.808C177.553 35.224 178.697 34.932 180.025 34.932C180.937 34.932 181.761 35.064 182.497 35.328C183.241 35.584 183.921 35.968 184.537 36.48L183.133 38.424C182.661 38.096 182.173 37.848 181.669 37.68C181.173 37.504 180.657 37.416 180.121 37.416C179.185 37.416 178.421 37.756 177.829 38.436C177.245 39.108 176.953 40.204 176.953 41.724C176.953 42.724 177.089 43.524 177.361 44.124C177.641 44.724 178.017 45.156 178.489 45.42C178.969 45.684 179.509 45.816 180.109 45.816ZM190.804 42.612C190.868 43.404 191.048 44.048 191.344 44.544C191.648 45.04 192.036 45.404 192.508 45.636C192.98 45.868 193.504 45.984 194.08 45.984C194.688 45.984 195.26 45.888 195.796 45.696C196.332 45.504 196.86 45.236 197.38 44.892L198.7 46.704C198.108 47.2 197.4 47.6 196.576 47.904C195.76 48.208 194.86 48.36 193.876 48.36C192.5 48.36 191.34 48.076 190.396 47.508C189.46 46.94 188.752 46.152 188.272 45.144C187.792 44.136 187.552 42.976 187.552 41.664C187.552 40.4 187.788 39.26 188.26 38.244C188.732 37.228 189.412 36.424 190.3 35.832C191.188 35.232 192.26 34.932 193.516 34.932C194.684 34.932 195.692 35.188 196.54 35.7C197.388 36.212 198.044 36.948 198.508 37.908C198.972 38.86 199.204 40.008 199.204 41.352C199.204 41.568 199.196 41.788 199.18 42.012C199.172 42.236 199.16 42.436 199.144 42.612H190.804ZM193.528 37.164C192.76 37.164 192.128 37.44 191.632 37.992C191.144 38.536 190.856 39.4 190.768 40.584H196.12C196.104 39.512 195.88 38.676 195.448 38.076C195.024 37.468 194.384 37.164 193.528 37.164Z" fill="#D9D9D9"/>
</svg>
