<svg width="232" height="66" viewBox="0 0 232 66" fill="none" xmlns="http://www.w3.org/2000/svg">
<path d="M91.2717 43C90.6303 43 90.041 42.844 89.5037 42.532C88.9663 42.22 88.5417 41.7953 88.2297 41.258C87.9177 40.7207 87.7617 40.1313 87.7617 39.49V27.79C87.7617 27.1487 87.9177 26.5593 88.2297 26.022C88.5417 25.4847 88.9663 25.06 89.5037 24.748C90.041 24.436 90.6303 24.28 91.2717 24.28H102.972C103.613 24.28 104.194 24.436 104.714 24.748C105.251 25.06 105.676 25.4847 105.988 26.022C106.317 26.5593 106.482 27.1487 106.482 27.79V29.064H103.336V27.894C103.336 27.7553 103.284 27.6427 103.18 27.556C103.093 27.4693 102.989 27.426 102.868 27.426H91.3497C91.2283 27.426 91.1157 27.4693 91.0117 27.556C90.925 27.6427 90.8817 27.7553 90.8817 27.894V39.386C90.8817 39.5247 90.925 39.6373 91.0117 39.724C91.1157 39.8107 91.2283 39.854 91.3497 39.854H102.868C102.989 39.854 103.093 39.8107 103.18 39.724C103.284 39.6373 103.336 39.5247 103.336 39.386V35.72H99.0197V32.574H106.482V39.49C106.482 40.1313 106.317 40.7207 105.988 41.258C105.676 41.7953 105.251 42.22 104.714 42.532C104.194 42.844 103.613 43 102.972 43H91.2717ZM112.724 43C112.082 43 111.493 42.844 110.956 42.532C110.436 42.2027 110.02 41.778 109.708 41.258C109.396 40.738 109.24 40.1573 109.24 39.516V33.9H121.46V31.508C121.46 31.3693 121.408 31.2567 121.304 31.17C121.217 31.066 121.104 31.014 120.966 31.014H109.24V27.92H121.07C121.728 27.92 122.318 28.0847 122.838 28.414C123.358 28.726 123.774 29.142 124.086 29.662C124.398 30.182 124.554 30.7627 124.554 31.404V43H112.724ZM112.828 39.906H121.46V36.734H112.334V39.412C112.334 39.5507 112.377 39.672 112.464 39.776C112.568 39.8627 112.689 39.906 112.828 39.906ZM130.294 43C129.653 43 129.072 42.844 128.552 42.532C128.032 42.2027 127.607 41.778 127.278 41.258C126.966 40.738 126.81 40.1573 126.81 39.516V22.954H129.93V39.412C129.93 39.5507 129.973 39.672 130.06 39.776C130.164 39.8627 130.277 39.906 130.398 39.906H133.206V43H130.294ZM138.545 43C137.904 43 137.323 42.844 136.803 42.532C136.283 42.2027 135.859 41.778 135.529 41.258C135.217 40.738 135.061 40.1573 135.061 39.516V31.404C135.061 30.7627 135.217 30.182 135.529 29.662C135.859 29.142 136.283 28.726 136.803 28.414C137.323 28.0847 137.904 27.92 138.545 27.92H146.891C147.55 27.92 148.139 28.0847 148.659 28.414C149.179 28.726 149.595 29.142 149.907 29.662C150.219 30.182 150.375 30.7627 150.375 31.404V37.02H138.155V39.412C138.155 39.5507 138.199 39.672 138.285 39.776C138.389 39.8627 138.511 39.906 138.649 39.906H150.375V43H138.545ZM138.155 34.186H147.281V31.508C147.281 31.3693 147.229 31.2567 147.125 31.17C147.039 31.066 146.926 31.014 146.787 31.014H138.649C138.511 31.014 138.389 31.066 138.285 31.17C138.199 31.2567 138.155 31.3693 138.155 31.508V34.186ZM152.937 43V31.404C152.937 30.7627 153.093 30.182 153.405 29.662C153.734 29.142 154.159 28.726 154.679 28.414C155.216 28.0847 155.797 27.92 156.421 27.92H164.819V31.014H156.525C156.386 31.014 156.265 31.066 156.161 31.17C156.074 31.2567 156.031 31.3693 156.031 31.508V43H152.937ZM166.699 43V27.92H169.793V43H166.699ZM166.699 26.1V22.98H169.793V26.1H166.699ZM175.439 43C174.797 43 174.208 42.844 173.671 42.532C173.151 42.2027 172.735 41.778 172.423 41.258C172.111 40.738 171.955 40.1573 171.955 39.516V33.9H184.175V31.508C184.175 31.3693 184.123 31.2567 184.019 31.17C183.932 31.066 183.819 31.014 183.681 31.014H171.955V27.92H183.785C184.443 27.92 185.033 28.0847 185.553 28.414C186.073 28.726 186.489 29.142 186.801 29.662C187.113 30.182 187.269 30.7627 187.269 31.404V43H175.439ZM175.543 39.906H184.175V36.734H175.049V39.412C175.049 39.5507 175.092 39.672 175.179 39.776C175.283 39.8627 175.404 39.906 175.543 39.906ZM197.647 43V24.28H200.741V43H197.647ZM203.468 43V27.79C203.468 27.1487 203.624 26.5593 203.936 26.022C204.248 25.4847 204.673 25.06 205.21 24.748C205.747 24.436 206.337 24.28 206.978 24.28H218.678C219.319 24.28 219.9 24.436 220.42 24.748C220.957 25.06 221.382 25.4847 221.694 26.022C222.023 26.5593 222.188 27.1487 222.188 27.79V43H219.042V36.578H206.588V43H203.468ZM206.588 33.458H219.042V27.894C219.042 27.7553 218.99 27.6427 218.886 27.556C218.799 27.4693 218.695 27.426 218.574 27.426H207.056C206.935 27.426 206.822 27.4693 206.718 27.556C206.631 27.6427 206.588 27.7553 206.588 27.894V33.458Z" fill="#D9D9D9"/>
<path d="M45.1141 51.2188L44.648 58.0136" stroke="url(#paint0_linear_1503_147)" stroke-width="5" stroke-linecap="round" stroke-linejoin="round"/>
<path d="M33.5927 49.459L31.4954 58.3258" stroke="url(#paint1_linear_1503_147)" stroke-width="5" stroke-linecap="round" stroke-linejoin="round"/>
<path d="M22.5039 45.8705L19.8764 52.1542" stroke="url(#paint2_linear_1503_147)" stroke-width="5" stroke-linecap="round" stroke-linejoin="round"/>
<path d="M55.2447 18.5333C65.0688 23.1393 71.115 29.368 69.8698 34.6326C68.1329 41.9754 52.8417 44.6492 35.69 40.5922C18.5383 36.5352 6.06538 27.2942 7.80222 19.9514C9.04751 14.6867 17.3055 11.8123 28.2009 12.1365" stroke="url(#paint3_linear_1503_147)" stroke-width="5" stroke-linecap="round" stroke-linejoin="round"/>
<path d="M24.1122 20.269C23.871 21.2688 23.9796 22.3209 24.42 23.2503C24.8603 24.1796 25.6058 24.9301 26.5322 25.3766C30.2874 27.2006 34.2399 28.5871 38.3117 29.5088C42.3649 30.509 46.5197 31.0402 50.6942 31.0918C51.7224 31.1076 52.7251 30.7707 53.5351 30.1371C54.3452 29.5035 54.9137 28.6115 55.1459 27.6097L55.4015 26.529C55.8876 24.4749 55.9609 22.3448 55.6174 20.2621C55.2738 18.1795 54.5201 16.1857 53.4001 14.3966C52.28 12.6075 50.8159 11.0585 49.0925 9.83962C47.3692 8.62071 45.4211 7.75611 43.361 7.29594C34.8005 5.38811 26.3275 10.9035 24.3153 19.4101L24.1122 20.269Z" stroke="url(#paint4_linear_1503_147)" stroke-width="5" stroke-linecap="round" stroke-linejoin="round"/>
<defs>
<linearGradient id="paint0_linear_1503_147" x1="44.3407" y1="54.4884" x2="45.4214" y2="54.744" gradientUnits="userSpaceOnUse">
<stop stop-color="#B13FFF"/>
<stop offset="0.333333" stop-color="#B13FFF" stop-opacity="0.82"/>
<stop offset="0.666667" stop-color="#B13FFF" stop-opacity="0.67"/>
<stop offset="1" stop-color="#B13FFF"/>
</linearGradient>
<linearGradient id="paint1_linear_1503_147" x1="32.5441" y1="53.8924" x2="33.5172" y2="54.1226" gradientUnits="userSpaceOnUse">
<stop stop-color="#B13FFF"/>
<stop offset="0.333333" stop-color="#B13FFF" stop-opacity="0.82"/>
<stop offset="0.666667" stop-color="#B13FFF" stop-opacity="0.67"/>
<stop offset="1" stop-color="#B13FFF"/>
</linearGradient>
<linearGradient id="paint2_linear_1503_147" x1="20.6498" y1="48.8846" x2="21.7305" y2="49.1402" gradientUnits="userSpaceOnUse">
<stop stop-color="#B13FFF"/>
<stop offset="0.333333" stop-color="#B13FFF" stop-opacity="0.82"/>
<stop offset="0.666667" stop-color="#B13FFF" stop-opacity="0.67"/>
<stop offset="1" stop-color="#B13FFF"/>
</linearGradient>
<linearGradient id="paint3_linear_1503_147" x1="7.64492" y1="20.6164" x2="69.7125" y2="35.2976" gradientUnits="userSpaceOnUse">
<stop stop-color="#B13FFF"/>
<stop offset="0.333333" stop-color="#B13FFF" stop-opacity="0.82"/>
<stop offset="0.666667" stop-color="#B13FFF" stop-opacity="0.67"/>
<stop offset="1" stop-color="#B13FFF"/>
</linearGradient>
<linearGradient id="paint4_linear_1503_147" x1="25.4162" y1="14.7556" x2="56.4501" y2="22.0963" gradientUnits="userSpaceOnUse">
<stop stop-color="#B13FFF"/>
<stop offset="0.333333" stop-color="#B13FFF" stop-opacity="0.82"/>
<stop offset="0.666667" stop-color="#B13FFF" stop-opacity="0.67"/>
<stop offset="1" stop-color="#B13FFF"/>
</linearGradient>
</defs>
</svg>
