<svg width="210" height="83" viewBox="0 0 210 83" fill="none" xmlns="http://www.w3.org/2000/svg">
<path d="M48.3741 59.8726L47.9335 66.2945" stroke="url(#paint0_linear_1507_194)" stroke-width="4" stroke-linecap="round" stroke-linejoin="round"/>
<path d="M37.485 58.2095L35.5028 66.5896" stroke="url(#paint1_linear_1507_194)" stroke-width="4" stroke-linecap="round" stroke-linejoin="round"/>
<path d="M27.0047 54.8182L24.5215 60.757" stroke="url(#paint2_linear_1507_194)" stroke-width="4" stroke-linecap="round" stroke-linejoin="round"/>
<path d="M57.9486 28.9813C67.2335 33.3345 72.9479 39.2212 71.771 44.1969C70.1294 51.1367 55.6775 53.6637 39.4672 49.8294C23.2569 45.9951 11.4685 37.2613 13.11 30.3215C14.287 25.3458 22.0917 22.6291 32.3892 22.9356" stroke="url(#paint3_linear_1507_194)" stroke-width="4" stroke-linecap="round" stroke-linejoin="round"/>
<path d="M28.5247 30.6218C28.2968 31.5667 28.3995 32.5611 28.8156 33.4394C29.2318 34.3178 29.9364 35.027 30.8119 35.449C34.3611 37.173 38.0966 38.4834 41.9449 39.3544C45.7757 40.2997 49.7024 40.8017 53.6478 40.8506C54.6196 40.8655 55.5672 40.5471 56.3328 39.9482C57.0984 39.3494 57.6357 38.5064 57.8552 37.5595L58.0968 36.5382C58.5561 34.5969 58.6255 32.5836 58.3008 30.6153C57.976 28.6469 57.2637 26.7626 56.2051 25.0717C55.1466 23.3807 53.7628 21.9168 52.1341 20.7648C50.5053 19.6128 48.6641 18.7956 46.7171 18.3607C38.6264 16.5576 30.6184 21.7703 28.7168 29.81L28.5247 30.6218Z" stroke="url(#paint4_linear_1507_194)" stroke-width="4" stroke-linecap="round" stroke-linejoin="round"/>
<path d="M95.0374 44.412H90.1654L89.2894 48H85.1734L90.2614 31.368H95.0374L100.125 48H95.9134L95.0374 44.412ZM90.7894 41.556H94.3894L92.5894 34.2L90.7894 41.556ZM112.428 31.368V34.248H108.996V45.108H112.428V48H101.628V45.108H105.06V34.248H101.628V31.368H112.428ZM142.241 43.14C142.241 44.172 141.969 45.084 141.425 45.876C140.889 46.668 140.117 47.288 139.109 47.736C138.101 48.184 136.889 48.408 135.473 48.408C133.905 48.408 132.589 48.18 131.525 47.724C130.469 47.26 129.593 46.688 128.897 46.008L130.889 43.8C131.505 44.336 132.185 44.752 132.929 45.048C133.673 45.336 134.489 45.48 135.377 45.48C135.929 45.48 136.413 45.4 136.829 45.24C137.245 45.08 137.569 44.848 137.801 44.544C138.033 44.24 138.149 43.872 138.149 43.44C138.149 43.032 138.057 42.688 137.873 42.408C137.689 42.128 137.377 41.876 136.937 41.652C136.505 41.428 135.901 41.2 135.125 40.968C133.829 40.568 132.785 40.128 131.993 39.648C131.209 39.168 130.637 38.612 130.277 37.98C129.925 37.348 129.749 36.612 129.749 35.772C129.749 34.756 130.029 33.888 130.589 33.168C131.157 32.448 131.917 31.9 132.869 31.524C133.821 31.14 134.869 30.948 136.013 30.948C137.301 30.948 138.437 31.136 139.421 31.512C140.405 31.88 141.257 32.408 141.977 33.096L140.117 35.232C139.557 34.76 138.953 34.412 138.305 34.188C137.657 33.956 136.997 33.84 136.325 33.84C135.829 33.84 135.393 33.904 135.017 34.032C134.641 34.152 134.349 34.332 134.141 34.572C133.933 34.812 133.829 35.112 133.829 35.472C133.829 35.824 133.929 36.12 134.129 36.36C134.329 36.6 134.677 36.828 135.173 37.044C135.669 37.252 136.357 37.496 137.237 37.776C138.285 38.096 139.181 38.48 139.925 38.928C140.677 39.368 141.249 39.924 141.641 40.596C142.041 41.268 142.241 42.116 142.241 43.14ZM151.736 34.836C152.848 34.836 153.744 35.112 154.424 35.664C155.104 36.216 155.6 36.996 155.912 38.004C156.232 39.012 156.392 40.208 156.392 41.592C156.392 42.904 156.2 44.076 155.816 45.108C155.432 46.132 154.876 46.94 154.148 47.532C153.42 48.116 152.536 48.408 151.496 48.408C150.256 48.408 149.248 47.964 148.472 47.076V52.92L144.68 53.316V35.256H148.04L148.208 36.684C148.728 36.02 149.296 35.548 149.912 35.268C150.528 34.98 151.136 34.836 151.736 34.836ZM150.56 37.632C150.12 37.632 149.732 37.764 149.396 38.028C149.06 38.292 148.752 38.652 148.472 39.108V44.484C148.736 44.876 149.012 45.164 149.3 45.348C149.596 45.532 149.944 45.624 150.344 45.624C151.016 45.624 151.54 45.32 151.916 44.712C152.292 44.096 152.48 43.072 152.48 41.64C152.48 40.584 152.404 39.768 152.252 39.192C152.1 38.608 151.88 38.204 151.592 37.98C151.304 37.748 150.96 37.632 150.56 37.632ZM169.799 44.328C169.799 44.808 169.863 45.156 169.991 45.372C170.127 45.588 170.343 45.752 170.639 45.864L169.859 48.36C169.107 48.288 168.471 48.124 167.951 47.868C167.439 47.604 167.035 47.208 166.739 46.68C166.251 47.264 165.627 47.7 164.867 47.988C164.107 48.268 163.331 48.408 162.539 48.408C161.227 48.408 160.179 48.036 159.395 47.292C158.619 46.54 158.231 45.576 158.231 44.4C158.231 43.016 158.771 41.948 159.851 41.196C160.939 40.444 162.467 40.068 164.435 40.068H166.151V39.588C166.151 38.924 165.935 38.432 165.503 38.112C165.079 37.792 164.455 37.632 163.631 37.632C163.223 37.632 162.699 37.692 162.059 37.812C161.419 37.924 160.779 38.088 160.139 38.304L159.263 35.784C160.087 35.472 160.943 35.236 161.831 35.076C162.727 34.916 163.527 34.836 164.231 34.836C166.127 34.836 167.527 35.224 168.431 36C169.343 36.768 169.799 37.88 169.799 39.336V44.328ZM163.847 45.696C164.255 45.696 164.683 45.576 165.131 45.336C165.579 45.088 165.919 44.74 166.151 44.292V42.228H165.215C164.159 42.228 163.383 42.392 162.887 42.72C162.391 43.04 162.143 43.512 162.143 44.136C162.143 44.624 162.291 45.008 162.587 45.288C162.891 45.56 163.311 45.696 163.847 45.696ZM180.217 45.42C180.737 45.42 181.225 45.32 181.681 45.12C182.145 44.912 182.605 44.648 183.061 44.328L184.753 46.728C184.193 47.208 183.509 47.608 182.701 47.928C181.901 48.248 181.005 48.408 180.013 48.408C178.645 48.408 177.469 48.128 176.485 47.568C175.501 47 174.745 46.216 174.217 45.216C173.689 44.208 173.425 43.04 173.425 41.712C173.425 40.384 173.693 39.204 174.229 38.172C174.773 37.132 175.541 36.316 176.533 35.724C177.533 35.132 178.717 34.836 180.085 34.836C181.053 34.836 181.913 34.972 182.665 35.244C183.425 35.508 184.121 35.904 184.753 36.432L183.109 38.712C182.677 38.408 182.221 38.172 181.741 38.004C181.261 37.836 180.761 37.752 180.241 37.752C179.385 37.752 178.693 38.056 178.165 38.664C177.645 39.264 177.385 40.28 177.385 41.712C177.385 42.648 177.509 43.388 177.757 43.932C178.005 44.468 178.341 44.852 178.765 45.084C179.197 45.308 179.681 45.42 180.217 45.42ZM191.14 42.732C191.228 43.428 191.408 43.992 191.68 44.424C191.96 44.848 192.316 45.16 192.748 45.36C193.18 45.552 193.664 45.648 194.2 45.648C194.784 45.648 195.348 45.552 195.892 45.36C196.436 45.168 196.96 44.912 197.464 44.592L198.988 46.656C198.388 47.168 197.66 47.588 196.804 47.916C195.956 48.244 194.988 48.408 193.9 48.408C192.444 48.408 191.224 48.12 190.24 47.544C189.256 46.96 188.516 46.16 188.02 45.144C187.524 44.128 187.276 42.96 187.276 41.64C187.276 40.384 187.516 39.244 187.996 38.22C188.476 37.188 189.176 36.368 190.096 35.76C191.024 35.144 192.156 34.836 193.492 34.836C194.708 34.836 195.76 35.096 196.648 35.616C197.544 36.136 198.236 36.884 198.724 37.86C199.22 38.836 199.468 40.008 199.468 41.376C199.468 41.592 199.46 41.824 199.444 42.072C199.436 42.32 199.42 42.54 199.396 42.732H191.14ZM193.492 37.38C192.812 37.38 192.264 37.624 191.848 38.112C191.432 38.6 191.18 39.38 191.092 40.452H195.772C195.764 39.524 195.584 38.78 195.232 38.22C194.88 37.66 194.3 37.38 193.492 37.38Z" fill="#D9D9D9"/>
<defs>
<linearGradient id="paint0_linear_1507_194" x1="47.6431" y1="62.9627" x2="48.6645" y2="63.2043" gradientUnits="userSpaceOnUse">
<stop stop-color="#B13FFF"/>
<stop offset="0.333333" stop-color="#B13FFF" stop-opacity="0.82"/>
<stop offset="0.666667" stop-color="#B13FFF" stop-opacity="0.67"/>
<stop offset="1" stop-color="#B13FFF"/>
</linearGradient>
<linearGradient id="paint1_linear_1507_194" x1="36.4939" y1="62.3995" x2="37.467" y2="62.6297" gradientUnits="userSpaceOnUse">
<stop stop-color="#B13FFF"/>
<stop offset="0.333333" stop-color="#B13FFF" stop-opacity="0.82"/>
<stop offset="0.666667" stop-color="#B13FFF" stop-opacity="0.67"/>
<stop offset="1" stop-color="#B13FFF"/>
</linearGradient>
<linearGradient id="paint2_linear_1507_194" x1="25.2525" y1="57.6668" x2="26.2738" y2="57.9084" gradientUnits="userSpaceOnUse">
<stop stop-color="#B13FFF"/>
<stop offset="0.333333" stop-color="#B13FFF" stop-opacity="0.82"/>
<stop offset="0.666667" stop-color="#B13FFF" stop-opacity="0.67"/>
<stop offset="1" stop-color="#B13FFF"/>
</linearGradient>
<linearGradient id="paint3_linear_1507_194" x1="12.9614" y1="30.95" x2="71.6223" y2="44.8255" gradientUnits="userSpaceOnUse">
<stop stop-color="#B13FFF"/>
<stop offset="0.333333" stop-color="#B13FFF" stop-opacity="0.82"/>
<stop offset="0.666667" stop-color="#B13FFF" stop-opacity="0.67"/>
<stop offset="1" stop-color="#B13FFF"/>
</linearGradient>
<linearGradient id="paint4_linear_1507_194" x1="29.7572" y1="25.411" x2="59.0878" y2="32.3487" gradientUnits="userSpaceOnUse">
<stop stop-color="#B13FFF"/>
<stop offset="0.333333" stop-color="#B13FFF" stop-opacity="0.82"/>
<stop offset="0.666667" stop-color="#B13FFF" stop-opacity="0.67"/>
<stop offset="1" stop-color="#B13FFF"/>
</linearGradient>
</defs>
</svg>
