<svg width="215" height="61" viewBox="0 0 215 61" fill="none" xmlns="http://www.w3.org/2000/svg">
<path d="M35.6523 43.5903L35.4461 48.2863" stroke="url(#paint0_linear_1507_194)" stroke-width="4" stroke-linecap="round" stroke-linejoin="round"/>
<path d="M27.6733 42.5723L26.3769 48.7254" stroke="url(#paint1_linear_1507_194)" stroke-width="4" stroke-linecap="round" stroke-linejoin="round"/>
<path d="M19.9616 40.2854L18.2556 44.6654" stroke="url(#paint2_linear_1507_194)" stroke-width="4" stroke-linecap="round" stroke-linejoin="round"/>
<path d="M42.0866 20.8679C48.9428 23.8789 53.2201 28.0736 52.4504 31.7271C51.3768 36.8226 40.8722 38.927 28.9697 36.4192C17.0672 33.9114 8.30473 27.7475 9.37834 22.652C10.1481 18.9985 15.7968 16.8751 23.3195 16.9138" stroke="url(#paint3_linear_1507_194)" stroke-width="4" stroke-linecap="round" stroke-linejoin="round"/>
<path d="M20.6366 22.5945C20.4871 23.2883 20.58 24.0124 20.8996 24.6461C21.2191 25.2798 21.7462 25.7849 22.3929 26.0773C25.0148 27.272 27.7653 28.1614 30.5902 28.7282C33.4037 29.3494 36.2792 29.6453 39.1603 29.6101C39.87 29.6035 40.556 29.354 41.1041 28.9031C41.6522 28.4522 42.0293 27.8271 42.1726 27.132L42.3306 26.3821C42.631 24.9566 42.6455 23.4857 42.3731 22.0546C42.1006 20.6236 41.5468 19.2608 40.7436 18.0455C39.9405 16.8301 38.904 15.7863 37.6943 14.9746C36.4847 14.1629 35.1259 13.5994 33.6967 13.3169C27.7581 12.146 22.0059 16.0952 20.7621 21.9984L20.6366 22.5945Z" stroke="url(#paint4_linear_1507_194)" stroke-width="4" stroke-linecap="round" stroke-linejoin="round"/>
<path d="M70.6842 37.4185C69.0678 37.4185 67.7057 37.0779 66.598 36.3969C65.4903 35.7077 64.6493 34.6985 64.075 33.3692C63.5088 32.0318 63.2257 30.3867 63.2257 28.4338C63.2257 26.9815 63.4267 25.7015 63.8288 24.5938C64.2391 23.4779 64.8052 22.5467 65.5273 21.8C66.2493 21.0451 67.0903 20.4749 68.0503 20.0892C69.0103 19.7036 70.0442 19.5108 71.1519 19.5108C72.3991 19.5108 73.4493 19.7036 74.3026 20.0892C75.156 20.4749 75.915 20.9836 76.5796 21.6154L74.4626 23.8062C73.9457 23.3467 73.4493 23.0062 72.9734 22.7846C72.4975 22.5631 71.956 22.4523 71.3488 22.4523C70.7744 22.4523 70.2452 22.5672 69.7611 22.7969C69.2852 23.0185 68.8667 23.3713 68.5057 23.8554C68.1529 24.3313 67.878 24.9508 67.6811 25.7138C67.4842 26.4687 67.3857 27.3836 67.3857 28.4585C67.3857 29.9436 67.5047 31.1251 67.7426 32.0031C67.9888 32.881 68.358 33.5128 68.8503 33.8985C69.3426 34.2759 69.9662 34.4646 70.7211 34.4646C71.1232 34.4646 71.5006 34.4195 71.8534 34.3292C72.2062 34.2308 72.5344 34.1036 72.838 33.9477V30.0462H70.6965L70.3026 27.2154H76.6534V35.6954C75.8001 36.2205 74.8811 36.639 73.8965 36.9508C72.9201 37.2626 71.8493 37.4185 70.6842 37.4185ZM90.1637 33.2338C90.1637 33.7262 90.2293 34.0831 90.3606 34.3046C90.5001 34.5262 90.7216 34.6944 91.0252 34.8092L90.2252 37.3692C89.4539 37.2954 88.8016 37.1272 88.2683 36.8646C87.7431 36.5938 87.3288 36.1877 87.0252 35.6462C86.5247 36.2451 85.8847 36.6923 85.1052 36.9877C84.3257 37.2749 83.5298 37.4185 82.7175 37.4185C81.3719 37.4185 80.297 37.0369 79.4929 36.2738C78.697 35.5026 78.299 34.5138 78.299 33.3077C78.299 31.8882 78.8529 30.7928 79.9606 30.0215C81.0765 29.2503 82.6437 28.8646 84.6621 28.8646H86.4221V28.3723C86.4221 27.6913 86.2006 27.1867 85.7575 26.8585C85.3226 26.5303 84.6826 26.3662 83.8375 26.3662C83.419 26.3662 82.8816 26.4277 82.2252 26.5508C81.5688 26.6656 80.9124 26.8338 80.256 27.0554L79.3575 24.4708C80.2026 24.1508 81.0806 23.9087 81.9913 23.7446C82.9103 23.5805 83.7308 23.4985 84.4529 23.4985C86.3975 23.4985 87.8334 23.8964 88.7606 24.6923C89.696 25.48 90.1637 26.6205 90.1637 28.1138V33.2338ZM84.059 34.6369C84.4775 34.6369 84.9165 34.5138 85.376 34.2677C85.8354 34.0133 86.1842 33.6564 86.4221 33.1969V31.08H85.4621C84.379 31.08 83.5831 31.2482 83.0744 31.5846C82.5657 31.9128 82.3113 32.3969 82.3113 33.0369C82.3113 33.5374 82.4631 33.9313 82.7667 34.2185C83.0785 34.4974 83.5093 34.6369 84.059 34.6369ZM100.745 18.7354V32.8892C100.745 33.4144 100.892 33.7918 101.188 34.0215C101.491 34.2431 101.906 34.3538 102.431 34.3538C102.767 34.3538 103.091 34.3169 103.403 34.2431C103.715 34.161 104.006 34.0667 104.277 33.96L105.212 36.5569C104.769 36.7867 104.236 36.9877 103.612 37.16C102.989 37.3323 102.263 37.4185 101.434 37.4185C99.8585 37.4185 98.7016 36.9672 97.9631 36.0646C97.2247 35.1538 96.8554 33.9354 96.8554 32.4092V21.3938H93.0031V18.7354H100.745ZM112.064 31.5969C112.154 32.3108 112.339 32.8892 112.618 33.3323C112.905 33.7672 113.27 34.0872 113.713 34.2923C114.156 34.4892 114.653 34.5877 115.203 34.5877C115.802 34.5877 116.38 34.4892 116.938 34.2923C117.496 34.0954 118.033 33.8328 118.55 33.5046L120.113 35.6215C119.498 36.1467 118.751 36.5774 117.873 36.9138C117.004 37.2503 116.011 37.4185 114.895 37.4185C113.402 37.4185 112.15 37.1231 111.141 36.5323C110.132 35.9333 109.373 35.1128 108.864 34.0708C108.355 33.0287 108.101 31.8308 108.101 30.4769C108.101 29.1887 108.347 28.0195 108.84 26.9692C109.332 25.9108 110.05 25.0697 110.993 24.4462C111.945 23.8144 113.106 23.4985 114.476 23.4985C115.724 23.4985 116.803 23.7651 117.713 24.2985C118.632 24.8318 119.342 25.599 119.843 26.6C120.351 27.601 120.606 28.8031 120.606 30.2062C120.606 30.4277 120.597 30.6656 120.581 30.92C120.573 31.1744 120.556 31.4 120.532 31.5969H112.064ZM114.476 26.1077C113.779 26.1077 113.217 26.3579 112.79 26.8585C112.364 27.359 112.105 28.159 112.015 29.2585H116.815C116.807 28.3067 116.622 27.5436 116.261 26.9692C115.9 26.3949 115.305 26.1077 114.476 26.1077ZM123.581 37V34.3908H125.304V26.5138H123.581V23.9292H128.27L128.984 26.8708C129.451 25.7467 130.046 24.9097 130.768 24.36C131.498 23.8103 132.389 23.5354 133.439 23.5354C133.882 23.5354 134.276 23.5723 134.621 23.6462C134.965 23.7118 135.289 23.8062 135.593 23.9292L134.411 27.1415C134.173 27.0759 133.935 27.0267 133.697 26.9938C133.46 26.961 133.197 26.9446 132.91 26.9446C132.056 26.9446 131.306 27.2933 130.657 27.9908C130.017 28.6882 129.529 29.5744 129.193 30.6492V34.3908H131.777V37H123.581ZM132.43 29.3938V25.5785L133.008 23.9292H135.593L134.867 29.3938H132.43ZM146.211 23.9292V34.3415H149.534V37H138.617V34.3415H142.322V26.5877H138.74V23.9292H146.211ZM143.86 17.0862C144.533 17.0862 145.083 17.2954 145.509 17.7138C145.936 18.1323 146.149 18.6533 146.149 19.2769C146.149 19.9005 145.936 20.4256 145.509 20.8523C145.083 21.2708 144.533 21.48 143.86 21.48C143.179 21.48 142.621 21.2708 142.186 20.8523C141.759 20.4256 141.546 19.9005 141.546 19.2769C141.546 18.6533 141.759 18.1323 142.186 17.7138C142.621 17.2954 143.179 17.0862 143.86 17.0862ZM163.992 33.2338C163.992 33.7262 164.057 34.0831 164.189 34.3046C164.328 34.5262 164.55 34.6944 164.853 34.8092L164.053 37.3692C163.282 37.2954 162.63 37.1272 162.096 36.8646C161.571 36.5938 161.157 36.1877 160.853 35.6462C160.353 36.2451 159.713 36.6923 158.933 36.9877C158.154 37.2749 157.358 37.4185 156.546 37.4185C155.2 37.4185 154.125 37.0369 153.321 36.2738C152.525 35.5026 152.127 34.5138 152.127 33.3077C152.127 31.8882 152.681 30.7928 153.789 30.0215C154.905 29.2503 156.472 28.8646 158.49 28.8646H160.25V28.3723C160.25 27.6913 160.029 27.1867 159.586 26.8585C159.151 26.5303 158.511 26.3662 157.666 26.3662C157.247 26.3662 156.71 26.4277 156.053 26.5508C155.397 26.6656 154.74 26.8338 154.084 27.0554L153.186 24.4708C154.031 24.1508 154.909 23.9087 155.819 23.7446C156.738 23.5805 157.559 23.4985 158.281 23.4985C160.226 23.4985 161.662 23.8964 162.589 24.6923C163.524 25.48 163.992 26.6205 163.992 28.1138V33.2338ZM157.887 34.6369C158.306 34.6369 158.745 34.5138 159.204 34.2677C159.664 34.0133 160.012 33.6564 160.25 33.1969V31.08H159.29C158.207 31.08 157.411 31.2482 156.903 31.5846C156.394 31.9128 156.139 32.3969 156.139 33.0369C156.139 33.5374 156.291 33.9313 156.595 34.2185C156.907 34.4974 157.337 34.6369 157.887 34.6369ZM193.72 19.9415V22.8954H190.2V34.0338H193.72V37H182.643V34.0338H186.163V22.8954H182.643V19.9415H193.72ZM205.409 33.32H200.412L199.513 37H195.292L200.51 19.9415H205.409L210.627 37H206.307L205.409 33.32ZM201.052 30.3908H204.744L202.898 22.8462L201.052 30.3908Z" fill="#D9D9D9"/>
<defs>
<linearGradient id="paint0_linear_1507_194" x1="35.1742" y1="45.8593" x2="35.9241" y2="46.0173" gradientUnits="userSpaceOnUse">
<stop stop-color="#CB85FD"/>
<stop offset="0.333333" stop-color="#CB85FD" stop-opacity="0.82"/>
<stop offset="0.666667" stop-color="#CB85FD" stop-opacity="0.67"/>
<stop offset="1" stop-color="#CB85FD"/>
</linearGradient>
<linearGradient id="paint1_linear_1507_194" x1="27.0251" y1="45.6488" x2="28.0036" y2="45.855" gradientUnits="userSpaceOnUse">
<stop stop-color="#CB85FD"/>
<stop offset="0.333333" stop-color="#CB85FD" stop-opacity="0.82"/>
<stop offset="0.666667" stop-color="#CB85FD" stop-opacity="0.67"/>
<stop offset="1" stop-color="#CB85FD"/>
</linearGradient>
<linearGradient id="paint2_linear_1507_194" x1="18.7337" y1="42.3964" x2="19.4836" y2="42.5544" gradientUnits="userSpaceOnUse">
<stop stop-color="#CB85FD"/>
<stop offset="0.333333" stop-color="#CB85FD" stop-opacity="0.82"/>
<stop offset="0.666667" stop-color="#CB85FD" stop-opacity="0.67"/>
<stop offset="1" stop-color="#CB85FD"/>
</linearGradient>
<linearGradient id="paint3_linear_1507_194" x1="9.28111" y1="23.1135" x2="52.3531" y2="32.1885" gradientUnits="userSpaceOnUse">
<stop stop-color="#CB85FD"/>
<stop offset="0.333333" stop-color="#CB85FD" stop-opacity="0.82"/>
<stop offset="0.666667" stop-color="#CB85FD" stop-opacity="0.67"/>
<stop offset="1" stop-color="#CB85FD"/>
</linearGradient>
<linearGradient id="paint4_linear_1507_194" x1="21.4427" y1="18.7684" x2="42.9787" y2="23.306" gradientUnits="userSpaceOnUse">
<stop stop-color="#CB85FD"/>
<stop offset="0.333333" stop-color="#CB85FD" stop-opacity="0.82"/>
<stop offset="0.666667" stop-color="#CB85FD" stop-opacity="0.67"/>
<stop offset="1" stop-color="#CB85FD"/>
</linearGradient>
</defs>
</svg>
